<?xml version="1.0" encoding="utf-8"?>
<!-- Generator: Adobe Illustrator 22.1.0, SVG Export Plug-In . SVG Version: 6.00 Build 0)  -->
<svg version="1.1" id="Layer_1" xmlns="http://www.w3.org/2000/svg" xmlns:xlink="http://www.w3.org/1999/xlink" x="0px" y="0px"
	 viewBox="0 0 20.3 12.7" style="enable-background:new 0 0 20.3 12.7;" xml:space="preserve">
<style type="text/css">
	.st0{fill:#006AB3;}
</style>
<title>award</title>
<path class="st0" d="M15.9,0.9h-1.3V0.5c0-0.2-0.2-0.4-0.4-0.5c0,0,0,0-0.1,0H6.3C6.1,0,5.9,0.2,5.9,0.4c0,0.1,0,0.3,0,0.5H4.6
	c-0.4,0-0.7,0.3-0.7,0.7c0,0,0,0,0,0c0,1.5,0.4,2.9,1.2,4.1c0.6,1.1,1.7,1.8,2.9,1.9c0.2,0.2,0.5,0.5,0.8,0.6v1.2
	c0,0.1-0.1,0.3-0.3,0.3l0,0l0,0c-0.9,0-1.7,0.7-1.7,1.7c0,0,0,0,0,0v0.3c-0.2,0-0.4,0.2-0.4,0.4c0,0.2,0.2,0.4,0.4,0.4h6.7
	c0.2,0,0.4-0.2,0.4-0.4c0-0.2-0.2-0.4-0.4-0.4v-0.3c0-0.9-0.7-1.7-1.7-1.7l0,0c-0.1,0-0.3-0.1-0.3-0.3V8.3c0.3-0.2,0.5-0.4,0.8-0.6
	c1.2-0.2,2.3-0.9,2.9-1.9c0.8-1.2,1.2-2.6,1.2-4.1C16.6,1.3,16.3,0.9,15.9,0.9C15.9,0.9,15.9,0.9,15.9,0.9z M12.7,11.8h-5v-0.5
	c0-0.3,0.2-0.5,0.5-0.5h3.9c0.3,0,0.5,0.2,0.5,0.5V11.8z M15.7,1.8c0,1.2-0.4,2.4-1.1,3.5c-0.3,0.5-0.8,1-1.4,1.3
	c0.1-0.1,0.1-0.2,0.2-0.4c0.7-1.4,1-2.9,1.1-4.4H15.7z M11,7.7c-0.5,0.2-1,0.2-1.5,0H9.4C9.1,7.5,8.9,7.3,8.6,7V6.9
	C8.3,6.6,8.1,6.2,7.9,5.8c-0.7-1.5-1.1-3-1.1-4.6c0-0.1,0.1-0.3,0.3-0.3c0,0,0,0,0,0h6.4c0.2,0,0.3,0.1,0.3,0.3
	c0,1.6-0.4,3.2-1.1,4.6c-0.2,0.4-0.4,0.8-0.7,1.1L11.8,7C11.6,7.3,11.4,7.5,11,7.7L11,7.7z M10.8,8.7v1.1H9.7V8.7
	C10,8.8,10.4,8.8,10.8,8.7L10.8,8.7z M7.3,6.6C6.7,6.3,6.2,5.8,5.9,5.3c-0.6-1-1-2.2-1-3.5h1.1c0.1,1.5,0.5,3,1.1,4.4
	C7.1,6.3,7.2,6.4,7.3,6.6z"/>
</svg>
