<?xml version="1.0" encoding="utf-8"?>
<!-- Generator: Adobe Illustrator 22.1.0, SVG Export Plug-In . SVG Version: 6.00 Build 0)  -->
<svg version="1.1" id="Layer_1" xmlns="http://www.w3.org/2000/svg" xmlns:xlink="http://www.w3.org/1999/xlink" x="0px" y="0px"
	 viewBox="0 0 512 512" style="enable-background:new 0 0 512 512;" xml:space="preserve">
<style type="text/css">
	.st0{fill:#FFFFFF;}
</style>
<path class="st0" d="M201.5,191.9c21,0,40,10.8,50.9,25.6l25.8-26c-15.4-20.1-45.1-36-76.7-36c-55.2,0-100.5,44.7-100.5,99.9
	s45.3,99.9,100.5,99.9c45.8,0,84.3-30.7,96.1-72.7c2.5-8.7,3.8-17.8,3.8-27.3v-9.1h-90.8v36.3h48.1c-10,21.4-32,36.3-57.2,36.3
	c-35.1,0-64.2-28.5-64.2-63.6S166.4,191.9,201.5,191.9z"/>
<path class="st0" d="M383.2,210.1h-36.3v27.3h-27.3v36.3h27.3v27.3h36.3v-27.3H411v-36.3h-27.9V210.1z"/>
<g>
	<path class="st0" d="M256,24c31.3,0,61.7,6.1,90.3,18.2C373.9,53.9,398.7,70.6,420,92c21.3,21.3,38,46.1,49.7,73.8
		c12.1,28.6,18.2,59,18.2,90.3s-6.1,61.7-18.2,90.3c-11.7,27.6-28.4,52.4-49.7,73.8c-21.3,21.3-46.1,38-73.8,49.7
		c-28.6,12.1-59,18.2-90.3,18.2s-61.7-6.1-90.3-18.2c-27.6-11.7-52.4-28.4-73.8-49.7c-21.3-21.3-38-46.1-49.7-73.8
		C30.1,317.7,24,287.3,24,256s6.1-61.7,18.2-90.3C53.9,138.1,70.6,113.3,92,92c21.3-21.3,46.1-38,73.8-49.7
		C194.3,30.1,224.7,24,256,24 M256,0C114.6,0,0,114.6,0,256s114.6,256,256,256s256-114.6,256-256S397.4,0,256,0L256,0z"/>
</g>
</svg>
