<svg id="Layer_1" data-name="Layer 1" xmlns="http://www.w3.org/2000/svg" viewBox="0 0 13.93 8.76"><defs><style>.cls-1{fill:#006ab3;}</style></defs><title>hands</title><path class="cls-1" d="M13.57.61a9.27,9.27,0,0,0-3.58.6.3.3,0,0,0-.19.22.17.17,0,0,0,0,.12c-.42-.16-1-.39-1.53-.63a2.12,2.12,0,0,0-2.49.24H3.57a1.37,1.37,0,0,0,0-.19A.34.34,0,0,0,3.48.68C3,.21,1.16.05.39,0A.37.37,0,0,0,.13.1.34.34,0,0,0,0,.35L0,5.52a.37.37,0,0,0,.35.36H2.08a.35.35,0,0,0,.33-.24l0-.11.07.08.09.09a8.38,8.38,0,0,0,.67.67c1.06.9,2.35,1.87,2.61,2.05A2.33,2.33,0,0,0,7,8.76a1,1,0,0,0,.66-.18,1,1,0,0,0,.67,0A1.28,1.28,0,0,0,8.89,8a1.12,1.12,0,0,0,.71-.12,1,1,0,0,0,.5-.49h0a1,1,0,0,0,.65-.25,1,1,0,0,0,.35-.89l.34-.23c0,.07,0,.12.05.17a.34.34,0,0,0,.34.26h1.72a.36.36,0,0,0,.36-.35l0-5.17A.36.36,0,0,0,13.57.61ZM2.86,1.12a30.48,30.48,0,0,1-1,4.05H.71V.74A8.73,8.73,0,0,1,2.86,1.12ZM10,6.69C9.81,6.51,8.92,5.6,8.36,5a.33.33,0,0,0-.25-.11h0a.37.37,0,0,0-.25.1.34.34,0,0,0-.11.25.35.35,0,0,0,.1.25C7.9,5.56,9,6.69,9.45,7.13a.47.47,0,0,1-.17.15.4.4,0,0,1-.37,0h0C8.56,7,7.71,6.1,7.5,5.88a.35.35,0,0,0-.5,0,.36.36,0,0,0-.11.25.37.37,0,0,0,.1.27c.21.22.85.91,1.27,1.29A.43.43,0,0,1,8,7.9a.22.22,0,0,1-.26,0h0c-.44-.37-1.39-1.4-1.4-1.41a.35.35,0,0,0-.5,0,.36.36,0,0,0,0,.5c.08.08.63.67,1.09,1.12a1.64,1.64,0,0,1-.64-.23c-.2-.13-1.46-1.07-2.54-2a7.4,7.4,0,0,1-.63-.63h0c-.15-.17-.29-.31-.4-.42.23-.78.57-1.94.76-2.9H5a2.29,2.29,0,0,0-.7,1.71.81.81,0,0,0,.54.57c.59.19,1.85-.51,2.27-.74l.06,0c.34.32.8.69,1.2,1h0a9.49,9.49,0,0,1,2,1.88.26.26,0,0,1-.07.35C10.2,6.71,10.08,6.73,10,6.69ZM8.82,3.84h0c-.52-.42-1-.81-1.31-1.12a.34.34,0,0,0-.37-.08,1.81,1.81,0,0,0-.31.16,4.22,4.22,0,0,1-1.76.69C5,3.46,5,3.44,5,3.42a2,2,0,0,1,.62-1.17C6.54,1.33,7,1.12,8,1.56s1.88.78,2.2.89c.33.8.76,2,1.05,2.9l-.44.29A13.81,13.81,0,0,0,8.82,3.84Zm1.81-2.11a9.08,9.08,0,0,1,2.58-.4V5.78H12.1C11.81,4.84,11.07,2.7,10.63,1.73Z"/></svg>