<svg id="Layer_1" data-name="Layer 1" xmlns="http://www.w3.org/2000/svg" viewBox="0 0 19.2 11.56"><defs><style>.cls-1{fill:#006ab3;}</style></defs><title>hat</title><path class="cls-1" d="M18.91,3.71,9.76,0a.47.47,0,0,0-.31,0L.29,3.66A.49.49,0,0,0,0,4.09a.51.51,0,0,0,.29.43l1.44.58V9.25l-1,1.06A.42.42,0,0,0,1,11a.41.41,0,0,0,.31-.14l.37-.39v.65a.41.41,0,0,0,.42.42.42.42,0,0,0,.42-.42V10.5l.36.39a.45.45,0,0,0,.31.14.39.39,0,0,0,.28-.12.42.42,0,0,0,0-.6l-1-1.06V5.44L3.86,6V8.2C3.85,9.6,7.45,10,9.58,10s5.73-.35,5.74-1.74V6l3.58-1.42a.49.49,0,0,0,.29-.43A.51.51,0,0,0,18.91,3.71ZM4.71,5.55c.13-.33,1.93-.94,4.89-.93s4.75.63,4.88.93V7.24a13,13,0,0,0-4.88-.78,13,13,0,0,0-4.88.75V5.55ZM9.58,9.14c-2.95,0-4.75-.63-4.88-.91.14-.33,1.94-.94,4.89-.93s4.67.6,4.87.94C14.26,8.57,12.48,9.15,9.58,9.14Zm5.62-4c-.65-1-3.71-1.35-5.6-1.35S4.65,4.06,4,5.1l-2.51-1L9.61.88,17.7,4.14Z"/></svg>