<?xml version="1.0" encoding="utf-8"?>
<!-- Generator: Adobe Illustrator 22.1.0, SVG Export Plug-In . SVG Version: 6.00 Build 0)  -->
<svg version="1.1" id="Layer_1" xmlns="http://www.w3.org/2000/svg" xmlns:xlink="http://www.w3.org/1999/xlink" x="0px" y="0px"
	 viewBox="0 0 17.8 17.8" style="enable-background:new 0 0 17.8 17.8;" xml:space="preserve">
<style type="text/css">
	.st0{fill:#006AB3;}
</style>
<title>world</title>
<path class="st0" d="M15.5,8.5c-0.2-3.3-2.8-6-6.1-6.2l0,0H8.5c-3.3,0.2-6,2.8-6.2,6.2l0,0v0.8l0,0c0.2,3.3,2.8,6,6.2,6.2l0,0h0.8
	l0,0c3.3-0.2,6-2.8,6.2-6.1l0,0V8.5z M6.5,3.7C6,4.3,5.7,5.1,5.5,5.8H4.1C4.7,4.9,5.5,4.2,6.5,3.7L6.5,3.7z M3.7,6.7h1.5
	C5,7.3,5,7.9,4.9,8.5H3.2C3.2,7.9,3.4,7.2,3.7,6.7L3.7,6.7z M3.2,9.3h1.8c0,0.6,0.1,1.2,0.2,1.8H3.6C3.4,10.5,3.2,9.9,3.2,9.3z
	 M4,11.9h1.3c0.2,0.7,0.6,1.5,1,2.1C5.4,13.6,4.6,12.8,4,11.9L4,11.9z M8.4,14.5c-1.1-0.5-1.9-1.4-2.2-2.6h2.2L8.4,14.5z M8.4,11.1
	H6c-0.1-0.6-0.2-1.2-0.2-1.8h2.6L8.4,11.1z M8.4,8.4H5.8c0-0.6,0.1-1.2,0.2-1.7h2.4L8.4,8.4z M8.4,5.8H6.3c0.3-1.1,1.1-2.1,2.2-2.5
	L8.4,5.8z M13.7,5.8h-1.3c-0.2-0.7-0.6-1.5-1-2.1C12.4,4.2,13.2,4.9,13.7,5.8L13.7,5.8z M9.4,3.2c1.1,0.5,1.9,1.4,2.1,2.6H9.3
	L9.4,3.2z M9.4,6.7h2.4C11.9,7.3,12,7.9,12,8.4H9.3L9.4,6.7z M9.4,9.3H12c0,0.6-0.1,1.2-0.2,1.8H9.3L9.4,9.3z M9.4,14.6V12h2.1
	C11.2,13.1,10.4,14.1,9.4,14.6L9.4,14.6z M11.3,14.1c0.4-0.6,0.8-1.3,1-2.1h1.3C13.1,12.9,12.3,13.6,11.3,14.1z M14.2,11.1h-1.5
	c0.1-0.6,0.2-1.2,0.2-1.8h1.8C14.6,10,14.4,10.5,14.2,11.1z M12.8,8.5c0-0.6-0.1-1.2-0.2-1.8h1.5c0.2,0.6,0.4,1.2,0.4,1.8L12.8,8.5z
	"/>
</svg>
