<?xml version="1.0" encoding="utf-8"?>
<!-- Generator: Adobe Illustrator 22.1.0, SVG Export Plug-In . SVG Version: 6.00 Build 0)  -->
<svg version="1.1" id="Capa_1" xmlns="http://www.w3.org/2000/svg" xmlns:xlink="http://www.w3.org/1999/xlink" x="0px" y="0px"
	 viewBox="0 0 509 509" style="enable-background:new 0 0 509 509;" xml:space="preserve">
<style type="text/css">
	.st0{fill:#FFFFFF;}
</style>
<g>
	<path class="st0" d="M390.6,187.8c-3.5-15-15.7-26.1-30.5-27.7c-35-3.9-70.4-3.9-105.6-3.9c-35.2,0-70.6,0-105.6,3.9
		c-14.8,1.7-27,12.7-30.5,27.7c-4.9,21.4-5,44.7-5,66.7s0,45.3,4.9,66.7c3.4,15,15.7,26.1,30.5,27.7c35,3.9,70.4,3.9,105.6,3.9
		c35.2,0,70.6,0,105.6-3.9c14.8-1.7,27-12.7,30.5-27.7c4.9-21.4,4.9-44.7,4.9-66.7C395.5,232.5,395.5,209.2,390.6,187.8z
		 M218.1,298.3c0-31.2,0-62.1,0-93.3c29.9,15.6,59.6,31.1,89.7,46.8C277.8,267.3,248.1,282.7,218.1,298.3z"/>
</g>
<g>
	<path class="st0" d="M254.5,17c32.1,0,63.2,6.3,92.4,18.7c28.3,12,53.7,29.1,75.5,50.9c21.8,21.8,38.9,47.2,50.9,75.5
		c12.4,29.3,18.7,60.4,18.7,92.4s-6.3,63.2-18.7,92.4c-12,28.3-29.1,53.7-50.9,75.5c-21.8,21.8-47.2,38.9-75.5,50.9
		c-29.3,12.4-60.4,18.7-92.4,18.7s-63.2-6.3-92.4-18.7c-28.3-12-53.7-29.1-75.5-50.9c-21.8-21.8-38.9-47.2-50.9-75.5
		C23.3,317.7,17,286.6,17,254.5s6.3-63.2,18.7-92.4c12-28.3,29.1-53.7,50.9-75.5c21.8-21.8,47.2-38.9,75.5-50.9
		C191.3,23.3,222.4,17,254.5,17 M254.5,0C113.9,0,0,113.9,0,254.5S113.9,509,254.5,509S509,395.1,509,254.5S395.1,0,254.5,0L254.5,0
		z"/>
</g>
</svg>
